<?xml version="1.0" encoding="UTF-8"?>
<!DOCTYPE svg PUBLIC "-//W3C//DTD SVG 1.1//EN" "http://www.w3.org/Graphics/SVG/1.1/DTD/svg11.dtd">
<!-- Creator: CorelDRAW 2018 (64-Bit) -->
<svg xmlns="http://www.w3.org/2000/svg" xml:space="preserve" width="100mm" height="45.872mm" version="1.1" style="shape-rendering:geometricPrecision; text-rendering:geometricPrecision; image-rendering:optimizeQuality; fill-rule:evenodd; clip-rule:evenodd"
viewBox="0 0 10000 4587.2"
 xmlns:xlink="http://www.w3.org/1999/xlink">
 <defs>
  <style type="text/css">
   <![CDATA[
    .fil0 {fill:black}
    .fil1 {fill:#FEFEFE;fill-rule:nonzero}
    .fil2 {fill:black;fill-rule:nonzero}
   ]]>
  </style>
 </defs>
 <g id="Слой_x0020_1">
  <metadata id="CorelCorpID_0Corel-Layer"/>
  <polygon class="fil0" points="5432.09,0 10000,0 10000,4567.88 5432.09,4567.88 5432.09,3425.92 5774.71,3425.95 5774.71,4225.29 9657.37,4225.29 9657.37,342.58 5774.71,342.58 5774.71,1141.96 5432.09,1141.96 "/>
  <polygon class="fil1" points="367.57,1216.26 367.57,2700.07 860.95,2700.07 860.95,1216.26 1228.54,1216.26 1228.54,2700.07 1717,2700.07 1717,1216.26 2083.35,1216.26 2083.35,2994.35 0.01,2994.35 0.01,1216.26 "/>
  <path class="fil1" d="M2989.32 2494.88l244.24 -821.86 378.55 0 -528.75 1519.19c-12.22,33.35 -27.88,69.61 -47.02,108.61 -19.13,39.11 -45.01,75.56 -77.54,109.35 -32.59,33.76 -72.87,61.87 -120.91,84.24 -48.07,22.4 -107.07,33.61 -177.06,33.61 -16.31,0 -30.94,-0.65 -43.98,-1.82 -13.02,-1.27 -25.64,-2.64 -37.85,-4.3 -12.23,-1.62 -24.24,-3.9 -36.01,-6.72 -11.84,-2.83 -24.65,-6.3 -38.5,-10.41l0 -267.36c8.98,0 18.13,0.16 27.48,0.55 9.38,0.44 18.13,0.62 26.29,0.62 35,0 64.89,-2.62 89.75,-7.93 24.8,-5.27 46.19,-13.84 64.12,-25.6 17.87,-11.85 32.95,-26.69 45.16,-44.65 12.22,-17.87 22.79,-39.02 31.76,-63.46l37.87 -98.94 -462.85 -1324.98 379.78 0 245.47 821.86z"/>
  <polygon class="fil1" points="4661.17,2577.95 5006.78,1673.02 5448.86,1673.02 5448.86,2994.35 5095.91,2994.35 5095.91,2183.48 4779.64,2994.35 4542.75,2994.35 4232.52,2196.95 4232.52,2994.35 3879.63,2994.35 3879.63,1673.02 4318.03,1673.02 "/>
  <path class="fil1" d="M6147.38 2347.12c0,53.71 4.87,104.25 14.68,151.45 9.74,47.23 25.4,88.13 47.03,122.67 21.52,34.64 49.6,62.15 84.24,82.48 34.57,20.33 77.12,30.52 127.56,30.52 48.86,0 90.6,-10.19 125.24,-30.52 34.57,-20.33 62.86,-47.84 84.84,-82.48 22.02,-34.54 37.86,-75.44 47.63,-122.67 9.77,-47.2 14.67,-97.74 14.67,-151.45l0 -25.67c0,-52.05 -4.9,-101.52 -14.67,-148.37 -9.77,-46.76 -25.61,-87.89 -47.63,-123.31 -21.98,-35.44 -50.48,-63.53 -85.48,-84.29 -34.99,-20.72 -77.36,-31.08 -127,-31.08 -48.86,0 -90.59,10.36 -125.16,31.08 -34.64,20.76 -62.72,48.85 -84.24,84.29 -21.63,35.42 -37.29,76.55 -47.03,123.31 -9.81,46.85 -14.68,96.32 -14.68,148.37l0 25.67zm-352.91 -25.67c0,-96.01 13.82,-185.21 41.52,-267.41 27.66,-82.2 67.98,-153.26 120.89,-213.14 52.89,-59.8 118.22,-106.79 196.01,-141.01 77.72,-34.18 166.26,-51.29 265.6,-51.29 100.16,0 189.27,17.11 267.45,51.29 78.14,34.22 143.89,81.21 197.2,141.01 53.3,59.88 93.84,130.94 121.53,213.14 27.66,82.2 41.52,171.4 41.52,267.41l0 25.67c0,96.88 -13.86,186.2 -41.52,268.03 -27.69,81.86 -68.23,152.65 -121.53,212.53 -53.31,59.8 -118.64,106.63 -196.01,140.42 -77.36,33.73 -166.08,50.68 -266.24,50.68 -100.08,0 -189.05,-16.95 -266.77,-50.68 -77.78,-33.79 -143.33,-80.62 -196.64,-140.42 -53.34,-59.88 -93.83,-130.67 -121.49,-212.53 -27.7,-81.83 -41.52,-171.15 -41.52,-268.03l0 -25.67z"/>
  <path class="fil1" d="M7455.03 2994.35l0 -1062.43 -196.61 0 0 -258.9 196.61 0 0 -114.82c0,-74.83 11.18,-141.18 33.62,-199.03 22.36,-57.76 54.5,-106.44 96.45,-145.89 41.91,-39.49 92.81,-69.46 152.64,-89.78 59.87,-20.33 127.21,-30.53 202.14,-30.53 31.72,0 62.48,2.44 92.15,7.31 29.74,4.89 58.84,10.57 87.35,17.11l-3.67 273.51c-29.32,-7.3 -65.16,-10.95 -107.46,-10.95 -63.5,0 -112.57,15.23 -147.18,45.75 -34.6,30.55 -51.89,74.72 -51.89,132.5l0 114.82 262.54 0 0 258.9 -262.54 0 0 1062.43 -354.15 0z"/>
  <path class="fil1" d="M8516.5 2994.35l0 -1062.43 -196.6 0 0 -258.9 196.6 0 0 -114.82c0,-74.83 11.18,-141.18 33.55,-199.03 22.4,-57.76 54.57,-106.44 96.48,-145.89 41.91,-39.49 92.82,-69.46 152.65,-89.78 59.87,-20.33 127.21,-30.53 202.11,-30.53 31.78,0 62.47,2.44 92.21,7.31 29.71,4.89 58.81,10.57 87.32,17.11l-3.67 273.51c-29.28,-7.3 -65.16,-10.95 -107.46,-10.95 -63.5,0 -112.57,15.23 -147.14,45.75 -34.65,30.55 -51.93,74.72 -51.93,132.5l0 114.82 262.57 0 0 258.9 -262.57 0 0 1062.43 -354.12 0z"/>
  <path class="fil2" d="M414.21 4587.2c155.76,0 248.07,-48.46 331.14,-137.31l-113.07 -121.14c-63.46,57.69 -120,94.61 -212.3,94.61 -138.45,0 -234.21,-115.38 -234.21,-253.84 0,-140.76 98.07,-253.83 234.21,-253.83 92.3,0 145.38,33.45 207.68,90l106.15 -122.31c-75,-73.84 -160.38,-131.53 -312.68,-131.53 -248.06,0 -421.13,188.07 -421.13,417.67 0,234.21 176.53,417.68 414.21,417.68zm551.56 -13.85l614.97 0 0 -158.07 -438.44 0 0 -169.61 380.75 0 0 -158.07 -380.75 0 0 -163.83 432.67 0 0 -158.07 -609.2 0 0 807.65zm851.54 0l175.37 0 0 -513.44 391.14 513.44 151.15 0 0 -807.65 -175.38 0 0 497.28 -378.44 -497.28 -163.84 0 0 807.65zm1178.06 0l177.68 0 0 -643.81 245.76 0 0 -163.84 -669.2 0 0 163.84 245.76 0 0 643.81zm638.09 0l614.97 0 0 -158.07 -438.44 0 0 -169.61 380.75 0 0 -158.07 -380.75 0 0 -163.83 432.67 0 0 -158.07 -609.2 0 0 807.65zm851.54 0l177.68 0 0 -258.44 137.3 0 175.38 258.44 207.68 0 -197.3 -288.45c102.69,-38.07 173.07,-119.99 173.07,-250.37 0,-78.46 -24.23,-141.92 -69.23,-186.91 -53.07,-53.08 -132.68,-81.92 -235.37,-81.92l-369.21 0 0 807.65zm177.68 -415.36l0 -231.92 176.53 0c86.54,0 139.61,39.23 139.61,115.38 0,70.38 -49.61,116.54 -136.15,116.54l-179.99 0z"/>
 </g>
</svg>
