<svg height="46.937" viewBox="0 0 121.781 46.937" width="121.781" xmlns="http://www.w3.org/2000/svg"><path d="m263.661 589.314h6.19a1.649 1.649 0 0 1 0 3.3h-6.19a1.649 1.649 0 0 1 0-3.3zm45.4 12.219a5.29 5.29 0 1 1 -5.281 5.29 5.293 5.293 0 0 1 5.28-5.29zm0 7.283a1.993 1.993 0 1 0 -1.99-1.993 1.994 1.994 0 0 0 1.989 1.993zm-70.406-7.283a5.29 5.29 0 1 1 -5.282 5.29 5.292 5.292 0 0 1 5.281-5.29zm0 7.283a1.993 1.993 0 1 0 -1.99-1.993 1.994 1.994 0 0 0 1.989 1.993zm-15.773-12.1a15.925 15.925 0 0 1 12.259-13.575l6.541-6.258a21.782 21.782 0 0 1 15.123-6.071h12.685a45.884 45.884 0 0 1 20.362 4.795 1.648 1.648 0 0 1 -1.466 2.951 42.6 42.6 0 0 0 -18.9-4.449h-8.386l-1.326 9.825 40.656 1.58-6.173-3.626a1.648 1.648 0 0 1 1.666-2.844l11.479 6.743 5.8.258a15.8 15.8 0 0 1 5.253 1.151c.044.014.088.028.131.046a15.878 15.878 0 0 1 7.867 7.074 16.557 16.557 0 0 1 .953 2.086c.538 1.429.933 2.926 1.384 4.385l1.12 3.628c.04.131.081.262.121.393a4.859 4.859 0 0 1 -4.637 6.3h-6.3a10.892 10.892 0 0 1 -20.047 0h-50.369a10.892 10.892 0 0 1 -20.047 0h-4.231a1.647 1.647 0 0 1 -1.646-1.649v-10.772a15.577 15.577 0 0 1 .127-1.967zm7.764-7.785-.07.058a12.711 12.711 0 0 0 -4.2 6.836 5.181 5.181 0 0 0 4.269-5.1v-1.8zm26.154-14.818a18.5 18.5 0 0 0 -12.849 5.159l-4.07 3.893 16.582.645 1.309-9.7h-.972zm67.248 22.787c-.071-.163-.145-.324-.223-.485l-.006-.011a12.664 12.664 0 0 0 -4.339-4.945v.455a5.176 5.176 0 0 0 4.636 5.146c-.022-.06-.045-.11-.068-.16zm-21.173 14.356a7.687 7.687 0 0 0 3.053 2.514 7.588 7.588 0 0 0 7.721-.87 7.612 7.612 0 1 0 -10.774-1.648zm-4.67-3.44q-.045-.494-.045-.989a10.9 10.9 0 1 1 21.8 0v.01c0 .316-.015.655-.044.979h5.472a1.564 1.564 0 0 0 1.492-2.026l-1.675-5.425c-.186.012-.373.019-.559.019a8.474 8.474 0 0 1 -8.458-8.47v-1.894c0-.042 0-.084 0-.126a12.546 12.546 0 0 0 -3.142-.547l-6.194-.277-9.605-.373c.619 3.9 1.475 12.459-1.419 19.119h2.374zm-26.724 0h20.681c3.515-6.236 2.3-15.859 1.724-19.25l-34.477-1.339c-.195 3.413-.2 11.84 3.951 16.787a10.708 10.708 0 0 0 8.121 3.798zm-40.419-.493a7.608 7.608 0 0 0 15.2-.5 7.608 7.608 0 1 0 -15.216 0c0 .166.005.332.016.496zm-5.015.493h1.753a11.023 11.023 0 0 1 10.295-11.891c.185-.009.372-.014.56-.014a10.921 10.921 0 0 1 10.9 10.916c0 .326-.015.661-.045.989h13a14.116 14.116 0 0 1 -1.678-1.691c-4.895-5.847-4.946-15.128-4.719-19.026l-20.031-.778a12.5 12.5 0 0 0 -2.337.731 8.5 8.5 0 0 1 .192 1.792v1.893a8.474 8.474 0 0 1 -7.889 8.449v8.63zm76.884-16.616h6.191a1.649 1.649 0 0 1 0 3.3h-6.191a1.649 1.649 0 0 1 0-3.3zm-13.65 21.21h6.19a1.649 1.649 0 0 1 0 3.3h-6.19a1.649 1.649 0 0 1 0-3.296zm-69.72 0h6.19a1.649 1.649 0 0 1 0 3.3h-6.19a1.649 1.649 0 0 1 0-3.296zm-7.14-17.22h6.19a1.649 1.649 0 0 1 0 3.3h-6.19a1.649 1.649 0 0 1 0-3.296zm62.79 6.93h6.189a1.649 1.649 0 0 1 0 3.3h-6.191a1.649 1.649 0 0 1 .002-3.296zm32.55-22.89h6.19a1.649 1.649 0 0 1 0 3.3h-6.19a1.649 1.649 0 0 1 0-3.296zm-9.45-5.46h6.19a1.649 1.649 0 0 1 0 3.3h-6.19a1.649 1.649 0 0 1 0-3.296zm-88.2 30.03h6.19a1.649 1.649 0 0 1 0 3.3h-6.19a1.649 1.649 0 0 1 0-3.3zm81.2-1.605a10.684 10.684 0 0 1 -7.375-2.9c-1.639-1.3-3.054-2.422-6.042-2.422a1.341 1.341 0 0 1 0-2.659 10.68 10.68 0 0 1 7.373 2.9c1.64 1.3 3.055 2.423 6.045 2.423a1.341 1.341 0 0 1 -.003 2.663zm-38.639-5.46a10.689 10.689 0 0 1 -7.376-2.9c-1.639-1.3-3.054-2.423-6.042-2.423a1.342 1.342 0 0 1 0-2.66 10.683 10.683 0 0 1 7.373 2.9c1.64 1.3 3.055 2.422 6.045 2.422a1.342 1.342 0 0 1 -.002 2.665z" fill="#e68654" fill-rule="evenodd" transform="translate(-208.469 -570.813)"/></svg>