<svg height="91.812" viewBox="0 0 107.5 91.812" width="107.5" xmlns="http://www.w3.org/2000/svg"><path d="m699.541 544.795h6.19a1.649 1.649 0 0 1 0 3.3h-6.19a1.649 1.649 0 0 1 0-3.3zm45.4 12.22a5.289 5.289 0 1 1 -5.282 5.289 5.291 5.291 0 0 1 5.281-5.289zm0 7.282a1.993 1.993 0 1 0 -1.99-1.993 1.994 1.994 0 0 0 1.989 1.996zm-70.407-7.282a5.289 5.289 0 1 1 -5.281 5.289 5.291 5.291 0 0 1 5.28-5.289zm0 7.282a1.993 1.993 0 1 0 -1.99-1.993 1.994 1.994 0 0 0 1.989 1.996zm-15.774-12.097a15.929 15.929 0 0 1 12.259-13.575l6.542-6.257a21.78 21.78 0 0 1 15.122-6.071h12.687a45.9 45.9 0 0 1 20.361 4.794 1.648 1.648 0 0 1 -1.466 2.952 42.582 42.582 0 0 0 -18.895-4.45h-8.392l-1.327 9.825 40.656 1.582-6.172-3.626a1.648 1.648 0 0 1 1.665-2.844l11.479 6.743 5.8.258a15.826 15.826 0 0 1 5.253 1.151c.044.014.088.029.131.046a15.871 15.871 0 0 1 7.867 7.075 16.4 16.4 0 0 1 .953 2.085c.538 1.429.933 2.926 1.384 4.385q.559 1.813 1.121 3.629c.04.13.08.261.121.392a4.859 4.859 0 0 1 -4.637 6.3h-6.3a10.892 10.892 0 0 1 -20.048 0h-50.366a10.892 10.892 0 0 1 -20.048 0h-4.229a1.647 1.647 0 0 1 -1.646-1.648v-10.778a15.577 15.577 0 0 1 .125-1.968zm7.764-7.785-.07.058a12.717 12.717 0 0 0 -4.2 6.836 5.18 5.18 0 0 0 4.269-5.1v-1.8zm26.159-14.822a18.505 18.505 0 0 0 -12.849 5.159l-4.07 3.893 16.583.645 1.309-9.7h-.973zm67.244 22.784c-.071-.164-.144-.325-.223-.486l-.006-.011a12.664 12.664 0 0 0 -4.339-4.945v.455a5.177 5.177 0 0 0 4.641 5.147c-.027-.053-.05-.106-.073-.159zm-21.173 14.355a7.687 7.687 0 0 0 3.053 2.514 7.607 7.607 0 0 0 10.491-5.023 7.607 7.607 0 1 0 -13.544 2.51zm-4.67-3.439c-.029-.329-.045-.66-.045-.99a10.9 10.9 0 1 1 21.8 0s0 .007 0 .01c0 .317-.015.656-.044.979h5.472a1.564 1.564 0 0 0 1.492-2.026l-1.675-5.425c-.186.012-.372.019-.559.019a8.474 8.474 0 0 1 -8.458-8.47v-1.89c0-.042 0-.084 0-.126a12.538 12.538 0 0 0 -3.142-.547l-6.193-.276-9.605-.374c.618 3.9 1.474 12.459-1.419 19.119h2.373zm-26.724 0h20.681c3.516-6.236 2.3-15.859 1.724-19.249l-34.477-1.34c-.2 3.413-.2 11.84 3.951 16.787a10.706 10.706 0 0 0 8.121 3.802zm-40.418-.493a7.608 7.608 0 0 0 15.2-.5 7.609 7.609 0 1 0 -15.217 0c0 .171.006.336.017.5zm-5.015.493h1.751a11.023 11.023 0 0 1 10.295-11.893c.186-.009.372-.014.56-.014a10.921 10.921 0 0 1 10.9 10.916c0 .326-.015.662-.045.989h13a14.033 14.033 0 0 1 -1.678-1.69c-4.9-5.848-4.947-15.128-4.72-19.027l-20.031-.778a12.469 12.469 0 0 0 -2.336.731 8.5 8.5 0 0 1 .191 1.792v1.893a8.473 8.473 0 0 1 -7.889 8.449v8.63zm84.054 9.928h14.11v12.39h-27.643l-15.1 4.646 15.322 4.714-.052 2.977-14.579 3.925 14.382 3.871h27.671v12.39h-96.023v-12.39h27.671l14.382-3.871-14.578-3.925-.053-2.977 15.322-4.714-15.1-4.646h-27.644v-12.39h14.111m60.229 0h-45.086 37.514m-63.671 35.621v6.2h89.828v-6.2zm36.49-3.1h16.844l-8.424-2.267zm-6.122-9.391 14.546 3.915 14.546-3.916-14.546-4.475zm14.546-7.718 9.833-3.024h-19.666zm-44.914-12.317v6.2h89.828v-6.2zm18.585-3.1 61.95 15.487h-3.1v7.744h3.1v-7.744zm6.195 3.1h-3.1v10.841h3.1v4.649zm-78.986-3.1h-3.1v6.2h3.1zm6.2 0h-3.1v13.939h3.1v1.553zm134.74 37.175h-3.1v3.1h3.1zm-6.195 0h-3.1v3.1h3.1z" fill="#e68654" fill-rule="evenodd" transform="translate(-658.625 -526.313)"/></svg>