<svg height="46.937" viewBox="0 0 107.5 46.937" width="107.5" xmlns="http://www.w3.org/2000/svg"><path d="m1181.54 587.314h6.19a1.649 1.649 0 1 1 0 3.3h-6.19a1.649 1.649 0 1 1 0-3.3zm45.4 12.22a5.289 5.289 0 1 1 -5.28 5.289 5.291 5.291 0 0 1 5.28-5.289zm0 7.282a1.993 1.993 0 1 0 -1.99-1.993 1.992 1.992 0 0 0 1.99 1.993zm-70.41-7.282a5.289 5.289 0 1 1 -5.28 5.289 5.285 5.285 0 0 1 5.28-5.289zm0 7.282a1.993 1.993 0 1 0 -1.99-1.993 1.992 1.992 0 0 0 1.99 1.993zm-15.77-12.1a15.918 15.918 0 0 1 12.26-13.575l6.54-6.257a21.771 21.771 0 0 1 15.12-6.072h12.69a45.866 45.866 0 0 1 20.36 4.795 1.646 1.646 0 0 1 -1.46 2.951 42.644 42.644 0 0 0 -18.9-4.449h-8.39l-1.33 9.825 40.66 1.579-6.18-3.625a1.649 1.649 0 0 1 1.67-2.844l11.48 6.743 5.79.258a15.852 15.852 0 0 1 5.26 1.151c.04.014.09.028.13.046a15.914 15.914 0 0 1 7.87 7.074 17.421 17.421 0 0 1 .95 2.085c.54 1.43.93 2.927 1.38 4.385.38 1.21.75 2.42 1.12 3.63l.12.392a4.859 4.859 0 0 1 -4.63 6.3h-6.31a10.887 10.887 0 0 1 -20.04 0h-50.36a10.894 10.894 0 0 1 -20.05 0h-4.23a1.641 1.641 0 0 1 -1.64-1.648v-10.773a16.14 16.14 0 0 1 .12-1.967zm7.76-7.785a.431.431 0 0 1 -.07.058 12.664 12.664 0 0 0 -4.19 6.835 5.173 5.173 0 0 0 4.26-5.1v-1.8zm26.16-14.822a18.513 18.513 0 0 0 -12.85 5.158l-4.07 3.894 16.59.644 1.31-9.7h-.98zm67.25 22.784c-.07-.164-.15-.326-.23-.486v-.007a12.746 12.746 0 0 0 -4.34-4.945v.455a5.173 5.173 0 0 0 4.64 5.146 1.1 1.1 0 0 1 -.07-.156zm-21.18 14.354a7.688 7.688 0 0 0 3.06 2.515 7.583 7.583 0 0 0 7.72-.871 7.61 7.61 0 1 0 -10.78-1.64zm-4.67-3.439c-.03-.329-.04-.659-.04-.989a10.9 10.9 0 1 1 21.8 0v.01c0 .317-.02.656-.05.979h5.48a1.57 1.57 0 0 0 1.49-2.026l-1.68-5.425c-.18.012-.37.019-.56.019a8.47 8.47 0 0 1 -8.45-8.471v-2.015a12.542 12.542 0 0 0 -3.14-.548l-6.2-.275-9.6-.374c.62 3.9 1.47 12.458-1.42 19.119h2.37zm-26.72 0h20.68c3.52-6.236 2.3-15.859 1.72-19.249l-34.47-1.34c-.2 3.412-.2 11.84 3.95 16.787a10.7 10.7 0 0 0 8.12 3.806zm-40.42-.493a7.608 7.608 0 0 0 15.2-.5 7.605 7.605 0 1 0 -15.21 0c0 .175 0 .339.01.504zm-5.01.493h1.75a11.023 11.023 0 0 1 10.29-11.891c.19-.01.38-.014.56-.014a10.921 10.921 0 0 1 10.9 10.916c0 .326-.01.662-.04.989h13a13.83 13.83 0 0 1 -1.68-1.69c-4.89-5.848-4.95-15.129-4.72-19.027l-20.03-.778a12.769 12.769 0 0 0 -2.34.731 8.244 8.244 0 0 1 .2 1.792v1.893a8.473 8.473 0 0 1 -7.89 8.449zm45.82-2.959-7.22-2.407h-3.97v-2.8h3.05l1.17-5.87 2.75.55-1.16 5.784 6.67 2.224 1.02-.515-1.29-2.591 6.1-4.575.96-4.8h2.85l-.98 4.9 5.06 3.041 3.44-4.587 2.24 1.678-4.95 6.606-7.27-4.362-3.9 2.932 1.5 3-3.28 1.637" fill="#e68654" fill-rule="evenodd" transform="translate(-1140.63 -568.813)"/></svg>