<svg height="105.812" viewBox="0 0 107.5 105.812" width="107.5" xmlns="http://www.w3.org/2000/svg"><path d="m1643.42 519.689a1.648 1.648 0 0 0 -2.33 0l-11.83 11.85-1.44-3.715a1.637 1.637 0 0 0 -2.12-.943 1.657 1.657 0 0 0 -.95 2.131l2.35 6.077a1.64 1.64 0 0 0 1.53 1.054 1.674 1.674 0 0 0 1.17-.483l13.62-13.64a1.655 1.655 0 0 0 0-2.331zm-9.15-8.083a16.069 16.069 0 1 0 16.05 16.069 16.077 16.077 0 0 0 -16.05-16.069zm0 28.841a12.773 12.773 0 1 1 12.75-12.773 12.776 12.776 0 0 1 -12.75 12.773zm-4.73 48.523h6.19a1.649 1.649 0 1 1 0 3.3h-6.19a1.649 1.649 0 1 1 0-3.3zm45.4 12.22a5.289 5.289 0 1 1 -5.28 5.289 5.291 5.291 0 0 1 5.28-5.289zm0 7.281a1.993 1.993 0 1 0 -1.99-1.992 1.991 1.991 0 0 0 1.99 1.992zm-70.41-7.281a5.289 5.289 0 1 1 -5.28 5.289 5.285 5.285 0 0 1 5.28-5.289zm0 7.281a1.993 1.993 0 1 0 -1.99-1.992 1.991 1.991 0 0 0 1.99 1.992zm-15.77-12.1a15.918 15.918 0 0 1 12.26-13.575l6.54-6.258a21.77 21.77 0 0 1 15.12-6.071h12.69a45.865 45.865 0 0 1 20.36 4.794 1.647 1.647 0 0 1 -1.46 2.952 42.632 42.632 0 0 0 -18.9-4.45h-8.39l-1.33 9.825 40.66 1.58-6.18-3.625a1.649 1.649 0 0 1 1.67-2.844l11.48 6.742 5.79.259a15.852 15.852 0 0 1 5.26 1.151c.04.014.09.028.13.046a15.914 15.914 0 0 1 7.87 7.074 17.421 17.421 0 0 1 .95 2.085c.54 1.429.93 2.926 1.38 4.385.38 1.21.75 2.42 1.12 3.63l.12.391a4.859 4.859 0 0 1 -4.63 6.3h-6.31a10.886 10.886 0 0 1 -20.04 0h-50.36a10.894 10.894 0 0 1 -20.05 0h-4.23a1.641 1.641 0 0 1 -1.64-1.648v-10.772a14.344 14.344 0 0 1 .12-1.966zm7.76-7.785a.49.49 0 0 1 -.07.058 12.664 12.664 0 0 0 -4.19 6.835 5.173 5.173 0 0 0 4.26-5.1v-1.8zm26.16-14.822a18.513 18.513 0 0 0 -12.85 5.158l-4.07 3.894 16.59.644 1.31-9.7h-.98zm67.25 22.784c-.07-.164-.15-.326-.23-.486v-.011a12.756 12.756 0 0 0 -4.34-4.946v.456a5.173 5.173 0 0 0 4.64 5.146 1.151 1.151 0 0 1 -.07-.154zm-21.18 14.354a7.677 7.677 0 0 0 3.06 2.514 7.579 7.579 0 0 0 7.72-.87 7.618 7.618 0 0 0 -4.59-13.692 7.619 7.619 0 0 0 -6.19 12.053zm-4.67-3.439c-.03-.329-.04-.66-.04-.989a10.9 10.9 0 1 1 21.8 0v.009c0 .317-.02.657-.05.98h5.48a1.525 1.525 0 0 0 1.25-.636 1.541 1.541 0 0 0 .24-1.391l-1.68-5.425c-.18.013-.37.02-.56.02a8.47 8.47 0 0 1 -8.45-8.471v-2.019a12.542 12.542 0 0 0 -3.14-.548l-6.2-.276-9.6-.373c.62 3.9 1.47 12.458-1.42 19.119zm-26.72 0h20.68c3.52-6.236 2.3-15.86 1.72-19.249l-34.47-1.34c-.2 3.412-.2 11.84 3.95 16.786a10.7 10.7 0 0 0 8.12 3.808zm-40.42-.494a7.608 7.608 0 0 0 15.2-.5 7.605 7.605 0 1 0 -15.21 0c0 .176 0 .341.01.505zm-5.01.494h1.75a11.023 11.023 0 0 1 10.29-11.891c.19-.01.38-.014.56-.014a10.92 10.92 0 0 1 10.9 10.916c0 .326-.01.661-.04.989h13a13.83 13.83 0 0 1 -1.68-1.69c-4.89-5.848-4.95-15.129-4.72-19.027l-20.03-.779a12.849 12.849 0 0 0 -2.34.732 8.241 8.241 0 0 1 .2 1.791v1.894a8.475 8.475 0 0 1 -7.89 8.449z" fill="#6ca558" fill-rule="evenodd" transform="translate(-1588.63 -511.594)"/></svg>