<svg height="99.18" viewBox="0 0 98.531 99.18" width="98.531" xmlns="http://www.w3.org/2000/svg"><path d="m204.636 1245.17a5.13 5.13 0 1 0 5.129 5.13 5.135 5.135 0 0 0 -5.129-5.13zm0 7.22a2.09 2.09 0 1 1 2.089-2.09 2.093 2.093 0 0 1 -2.089 2.09zm13.819-2.36a13.452 13.452 0 0 0 -4.475-9.73l-30.6-27.61 27.057-27.06a2.672 2.672 0 0 0 .523-.21l5.859-3.09a2.853 2.853 0 0 0 .685-4.54l-6.6-6.6a2.855 2.855 0 0 0 -4.54.69l-3.092 5.86a2.709 2.709 0 0 0 -.213.52l-12.772 12.78a1.52 1.52 0 1 0 2.15 2.15l11.72-11.73 3.071 3.08-29.971 29.98-3.071-3.08 13.082-13.08a1.52 1.52 0 1 0 -2.15-2.15l-9.492 9.49-10.33-9.32a23.34 23.34 0 0 0 -30.418-29.45 1.516 1.516 0 0 0 -.531 2.49l11.933 11.94a1.864 1.864 0 0 1 0 2.64l-7.749 7.75a1.864 1.864 0 0 1 -2.644 0l-11.933-11.93a1.522 1.522 0 0 0 -2.494.53 23.34 23.34 0 0 0 28.977 30.58l7.988 8.73a8.2 8.2 0 0 1 -10.291 3.92 1.508 1.508 0 0 0 -1.625.34l-18.61 18.61a12.924 12.924 0 1 0 18.274 18.28l18.61-18.61a1.531 1.531 0 0 0 .342-1.63 8.22 8.22 0 0 1 10.64-10.64 1.527 1.527 0 0 0 1.625-.34l3.511-3.51a5.6 5.6 0 0 0 0-7.92l-1.494-1.49 1.817-1.82 30.718 27.71a10.53 10.53 0 1 1 -14.82 14.93l-22.839-24.99a1.523 1.523 0 0 0 -2.244 2.06l22.84 24.98a13.471 13.471 0 0 0 9.709 4.41h.312a13.577 13.577 0 0 0 13.555-13.92zm-12.429-71 2.91-5.51 6.238 6.24-5.512 2.91zm-54.018 29.11a1.511 1.511 0 0 0 -1.653-.4 20.3 20.3 0 0 1 -26.782-24.01l10.166 10.17a4.9 4.9 0 0 0 6.943 0l7.749-7.75a4.906 4.906 0 0 0 0-6.94l-10.166-10.17a20.3 20.3 0 0 1 23.836 27.22 1.519 1.519 0 0 0 .394 1.69l10.981 9.91-1.438 1.43-1.494-1.49a5.595 5.595 0 0 0 -7.915 0l-3.51 3.51a1.525 1.525 0 0 0 -.342 1.63 8.2 8.2 0 0 1 .549 3.2zm26.745 15.79-2.844 2.84a11.252 11.252 0 0 0 -11.083 2.86 11.262 11.262 0 0 0 -2.856 11.08l-17.944 17.95a9.884 9.884 0 0 1 -13.975-13.98l17.949-17.94a11.264 11.264 0 0 0 13.939-13.95l2.845-2.84a2.553 2.553 0 0 1 3.615 0l2.569 2.57 5.221 5.22 2.569 2.57a2.565 2.565 0 0 1 -.005 3.62zm-27.714 8.55a1.508 1.508 0 0 0 -2.149 0l-14.4 14.4a1.52 1.52 0 1 0 2.15 2.15l14.4-14.4a1.52 1.52 0 0 0 -.001-2.15zm5.32 5.32a1.527 1.527 0 0 0 -2.15 0l-14.4 14.4a1.52 1.52 0 1 0 2.15 2.15l14.4-14.4a1.52 1.52 0 0 0 0-2.15z" fill="#b8b8b8" fill-rule="evenodd" transform="translate(-119.938 -1165.41)"/></svg>