<svg height="92.69" viewBox="0 0 97.44 92.69" width="97.44" xmlns="http://www.w3.org/2000/svg"><path d="m1616.6 1455.42v-4.15a5.919 5.919 0 0 1 5.92-5.92h16.24v-.13a5.917 5.917 0 0 1 5.92-5.91l47.02-.05a22.554 22.554 0 0 1 16.29 6.96 21.618 21.618 0 0 1 5.98 16.5c-.75 11.52-10.85 20.54-22.97 20.54h1.61c-2.18 0-8.81 1.01-9.99 2.56a6.123 6.123 0 0 0 -1.02 5.39l9.43 33.7a4.2 4.2 0 0 0 4.02 3.04 1.989 1.989 0 0 1 1.81 1.75l-.2.82c-.32 1.25-2.94 1.22-5.1 1.22l-29.26.2c-.98-.09-4.14-2.13-.8-3.71l2.31-.32c.66 0 .47-.26.87-.8a2.127 2.127 0 0 0 .36-1.87l-8.34-29.77h-7.99a1.894 1.894 0 0 1 -1.73-2.65 15.668 15.668 0 0 0 .33-9.44h-2.63a5.926 5.926 0 0 1 -5.92-5.92v-.13h-16.24a5.917 5.917 0 0 1 -5.92-5.91v-4.16m34.62 24.43h4.43l-2.33-8.31h-2.13a20 20 0 0 1 .03 8.31zm-8.68-14.23a2.142 2.142 0 0 0 2.14 2.14h10.07a1.884 1.884 0 0 1 1.82 1.38l12.11 43.24c.76 3.97 3.24 3.83 4.35 3.85l15.26-.12a7.483 7.483 0 0 1 -.89-2.02l-9.44-33.7a9.874 9.874 0 0 1 1.65-8.69c.04-.06.09-.11.13-.16h-16.93a1.89 1.89 0 1 1 0-3.78h24.18c.06 0 5.15-.1 5.22-.1.13 0 .26-.01.4-.01h-1.61c10.11 0 18.53-7.48 19.15-17.01a17.914 17.914 0 0 0 -4.95-13.68 18.469 18.469 0 0 0 -13.5-5.77l-47.02.05a2.142 2.142 0 0 0 -2.14 2.14zm-22.17-6.04a2.145 2.145 0 0 0 2.15 2.14h.12v-16.25a1.89 1.89 0 0 1 3.78 0v16.25h12.34v-24.43h-12.34v2.14a1.89 1.89 0 0 1 -3.78 0v-2.14h-.12a2.145 2.145 0 0 0 -2.15 2.14zm-3.77-7.94v-4.28m66.36.25 18.94-.08a1.885 1.885 0 1 1 0 3.77l-18.94.09a1.89 1.89 0 0 1 0-3.78zm14.86-2.34-10.83.08a1.89 1.89 0 0 1 0-3.78l10.83-.07a1.885 1.885 0 1 1 0 3.77zm-10.83 8.39 10.83-.09a1.885 1.885 0 1 1 0 3.77l-10.83.09a1.885 1.885 0 1 1 0-3.77z" fill="#e57939" fill-rule="evenodd" transform="translate(-1616.59 -1439.25)"/></svg>